<svg width="24" height="24" xmlns="http://www.w3.org/2000/svg">

 <g>
  <title>background</title>
  <rect fill="none" id="canvas_background" height="402" width="582" y="-1" x="-1"/>
 </g>
 <g>
  <title>Layer 1</title>
  <path fill="#ffffff" id="svg_1" d="m12.026,2c-5.509,0 -9.974,4.465 -9.974,9.974c0,4.406 2.857,8.145 6.821,9.465c0.499,0.09 0.679,-0.217 0.679,-0.481c0,-0.237 -0.008,-0.865 -0.011,-1.696c-2.775,0.602 -3.361,-1.338 -3.361,-1.338c-0.452,-1.152 -1.107,-1.459 -1.107,-1.459c-0.905,-0.619 0.069,-0.605 0.069,-0.605c1.002,0.07 1.527,1.028 1.527,1.028c0.89,1.524 2.336,1.084 2.902,0.829c0.091,-0.645 0.351,-1.085 0.635,-1.334c-2.214,-0.251 -4.542,-1.107 -4.542,-4.93c0,-1.087 0.389,-1.979 1.024,-2.675c-0.101,-0.253 -0.446,-1.268 0.099,-2.64c0,0 0.837,-0.269 2.742,1.021a9.582,9.582 0 0 1 2.496,-0.336a9.554,9.554 0 0 1 2.496,0.336c1.906,-1.291 2.742,-1.021 2.742,-1.021c0.545,1.372 0.203,2.387 0.099,2.64c0.64,0.696 1.024,1.587 1.024,2.675c0,3.833 -2.33,4.675 -4.552,4.922c0.355,0.308 0.675,0.916 0.675,1.846c0,1.334 -0.012,2.41 -0.012,2.737c0,0.267 0.178,0.577 0.687,0.479c3.962,-1.322 6.816,-5.058 6.816,-9.463c0,-5.509 -4.465,-9.974 -9.974,-9.974z" clip-rule="evenodd" fill-rule="evenodd"/>
 </g>
</svg>