<svg width="24" height="24" xmlns="http://www.w3.org/2000/svg">

 <g>
  <title>background</title>
  <rect fill="none" id="canvas_background" height="402" width="582" y="-1" x="-1"/>
 </g>
 <g>
  <title>Layer 1</title>
  <path fill="#ffffff" id="svg_1" d="m19.953271,2.859814l-16,0a1,1 0 0 0 -1,1l0,16a1,1 0 0 0 1,1l16,0a1,1 0 0 0 1,-1l0,-16a1,1 0 0 0 -1,-1zm-11.661,15.337l-2.672,0l0,-8.59l2.672,0l0,8.59zm-1.336,-9.763a1.548,1.548 0 1 1 0,-3.096a1.548,1.548 0 0 1 0,3.096zm11.335,9.763l-2.669,0l0,-4.177c0,-0.996 -0.018,-2.277 -1.388,-2.277c-1.39,0 -1.601,1.086 -1.601,2.207l0,4.248l-2.667,0l0,-8.59l2.56,0l0,1.174l0.037,0c0.355,-0.675 1.227,-1.387 2.524,-1.387c2.704,0 3.203,1.778 3.203,4.092l0,4.71l0.001,0z"/>
 </g>
</svg>